<svg width="12" height="14" viewBox="0 0 12 14" fill="none" xmlns="http://www.w3.org/2000/svg">
<path d="M6.687 1.26199C6.50133 1.08645 6.25551 0.988647 6 0.988647C5.74449 0.988647 5.49867 1.08645 5.313 1.26199L0.469001 5.83999C0.320682 5.98034 0.202582 6.1495 0.121937 6.3371C0.0412911 6.5247 -0.000201572 6.72679 7.36252e-07 6.93099V12.501C0.000265837 12.8986 0.158418 13.2799 0.439694 13.561C0.72097 13.8421 1.10235 14 1.5 14H3C3.39783 14 3.77936 13.842 4.06066 13.5607C4.34197 13.2793 4.5 12.8978 4.5 12.5V9.99999C4.5 9.86738 4.55268 9.7402 4.64645 9.64644C4.74022 9.55267 4.86739 9.49999 5 9.49999H7C7.13261 9.49999 7.25979 9.55267 7.35355 9.64644C7.44732 9.7402 7.5 9.86738 7.5 9.99999V12.5C7.5 12.8978 7.65804 13.2793 7.93934 13.5607C8.22064 13.842 8.60218 14 9 14H10.5C10.8978 14 11.2794 13.842 11.5607 13.5607C11.842 13.2793 12 12.8978 12 12.5V6.92999C11.9999 6.72589 11.9582 6.52394 11.8774 6.33652C11.7966 6.1491 11.6784 5.98014 11.53 5.83999L6.687 1.25999V1.26199Z" fill="#FFD15B"/>
</svg>
