<svg width="20" height="20" viewBox="0 0 20 20" fill="none" xmlns="http://www.w3.org/2000/svg">
<g id="system-uicons:cart">
<g id="Group">
<path id="Vector" d="M4.76193 6.19047H16.6667L15.1562 11.4762C15.0424 11.8741 14.8021 12.2241 14.4717 12.4732C14.1412 12.7224 13.7386 12.8572 13.3248 12.8571H6.94384C6.47476 12.8574 6.02207 12.6846 5.67252 12.3717C5.32298 12.0589 5.10115 11.6281 5.04955 11.1619L4.28574 4.28571H2.38098" stroke="black" stroke-linecap="round" stroke-linejoin="round"/>
<g id="Group_2">
<path id="Vector_2" d="M6.66674 16.1905C7.19272 16.1905 7.61912 15.7641 7.61912 15.2381C7.61912 14.7121 7.19272 14.2857 6.66674 14.2857C6.14075 14.2857 5.71436 14.7121 5.71436 15.2381C5.71436 15.7641 6.14075 16.1905 6.66674 16.1905Z" fill="black"/>
<path id="Vector_3" d="M14.2858 16.1905C14.8117 16.1905 15.2381 15.7641 15.2381 15.2381C15.2381 14.7121 14.8117 14.2857 14.2858 14.2857C13.7598 14.2857 13.3334 14.7121 13.3334 15.2381C13.3334 15.7641 13.7598 16.1905 14.2858 16.1905Z" fill="black"/>
</g>
</g>
</g>
</svg>
